<svg width="159" height="32" viewBox="0 0 159 32" fill="none" xmlns="http://www.w3.org/2000/svg">
<g clip-path="url(#clip0_18_82)">
<path d="M115.066 11.7795C115.066 10.3633 115.089 9.12163 115.057 7.87993C115.041 7.22809 114.865 6.63593 114.149 6.36051C113.996 6.30083 113.801 6.04377 113.822 5.90376C113.847 5.72015 114.032 5.48604 114.206 5.41259C114.57 5.26111 114.982 5.22897 115.359 5.10274C116.638 4.67354 117.921 4.25122 119.181 3.76923C119.986 3.46167 120.124 3.51446 120.124 4.36368V24.6739C120.124 25.0366 120.117 25.4015 120.144 25.7641C120.19 26.3678 120.396 26.8635 121.018 27.1252C121.196 27.2009 121.295 27.4695 121.432 27.6508C121.242 27.7449 121.057 27.9101 120.86 27.9239C119.188 28.0341 117.514 28.1167 115.842 28.2108C115.169 28.2498 115.087 28.1787 115.082 27.4855C115.078 26.8016 115.082 26.1199 115.082 25.3395C114.959 25.4428 114.89 25.4749 114.86 25.5277C113.222 28.2567 110.306 29.0669 107.289 28.4426C105.045 27.979 103.334 26.6914 102.314 24.6578C100.491 21.02 100.23 17.2168 101.861 13.4687C103.936 8.69932 108.783 8.13699 111.96 9.15836C113.081 9.5187 113.961 10.2417 114.648 11.2034C114.755 11.3526 114.865 11.5018 115.068 11.7818L115.066 11.7795ZM115.21 18.4746C115.103 17.3935 115.043 16.3056 114.879 15.2338C114.686 13.976 114.247 12.8031 113.428 11.7955C112.102 10.1659 109.089 9.63805 107.573 12.1651C107.241 12.7159 106.946 13.3104 106.756 13.9209C105.969 16.4479 105.859 19.0208 106.367 21.6167C106.623 22.9273 107.088 24.1483 107.98 25.1674C109.659 27.0839 112.374 26.898 113.769 24.768C113.977 24.4513 114.151 24.107 114.3 23.7581C115.011 22.0689 115.139 20.2855 115.213 18.4723L115.21 18.4746Z" fill="#0D0D0D"/>
<path d="M58.4902 20.8845V20.2074C58.4902 16.1724 58.4947 12.1375 58.4833 8.10022C58.4833 7.54937 58.4215 6.99163 58.3186 6.45226C58.1699 5.6673 57.6736 5.17843 56.8958 4.97645C56.6762 4.91907 56.4315 4.87546 56.2553 4.74693C56.0975 4.63217 56.0197 4.40724 55.9077 4.23051C56.0769 4.1387 56.2462 3.97115 56.42 3.96656C57.0468 3.9482 57.6781 3.9941 58.3072 3.9941C59.2404 3.9941 60.1737 3.95279 61.107 3.96885C61.3106 3.97345 61.5096 4.15247 61.7109 4.25116C61.5896 4.4256 61.5073 4.69184 61.3426 4.7607C60.3956 5.16695 60.1188 5.9565 60.0571 6.88376C60.025 7.36116 60.0067 7.83856 60.0067 8.31596C60.0044 14.6278 60.0067 20.9396 60.0044 27.2491C60.0044 28.1557 59.9175 28.135 59.0231 28.2429C57.7445 28.3967 56.9667 27.855 56.2073 26.875C51.7217 21.0979 47.1765 15.3668 42.652 9.62193C42.5285 9.46586 42.4004 9.31208 42.1808 9.04354C42.1625 9.38782 42.1465 9.56914 42.1465 9.75276C42.1465 14.4969 42.1419 19.2388 42.1511 23.983C42.1511 24.4581 42.1968 24.9378 42.254 25.4106C42.3707 26.3861 42.8785 27.0218 43.8575 27.256C44.2303 27.3455 44.7839 27.3822 44.7198 27.8963C44.6535 28.4357 44.1091 28.1993 43.766 28.2039C42.3935 28.2245 41.0211 28.2268 39.6509 28.2085C39.4153 28.2062 39.1797 28.0639 38.9441 27.9858C39.0973 27.7747 39.2026 27.4625 39.4084 27.3684C40.4218 26.9094 40.5293 25.9959 40.6276 25.0732C40.6642 24.7335 40.6459 24.3847 40.6459 24.0404V7.11557C40.6459 6.77129 40.6528 6.42472 40.6231 6.08273C40.5727 5.50205 40.3829 5.01776 39.7836 4.7584C39.6052 4.68266 39.5114 4.40953 39.381 4.22592C39.5686 4.13411 39.7561 3.96426 39.946 3.96197C41.6044 3.94131 43.2628 3.91377 44.9189 3.98033C45.2574 3.9941 45.6668 4.32691 45.9002 4.62528C48.1716 7.52871 50.411 10.4551 52.6595 13.3746C54.4895 15.7501 56.3171 18.1256 58.1493 20.4989C58.2157 20.5861 58.298 20.6641 58.4947 20.8799L58.4902 20.8845Z" fill="#0D0D0D"/>
<path d="M152.753 25.2982C152.549 25.592 152.403 25.8307 152.233 26.051C150.991 27.6737 149.292 28.4587 147.309 28.5895C146.41 28.6492 145.467 28.5849 144.589 28.3783C140.84 27.497 139.511 23.26 142.025 20.3084C143.038 19.1195 144.378 18.4355 145.826 17.9765C147.238 17.5289 148.681 17.1869 150.102 16.7669C150.811 16.5581 151.502 16.2826 152.197 16.0279C152.542 15.9016 152.696 15.6606 152.659 15.275C152.547 14.0976 152.556 12.8995 152.332 11.745C151.964 9.8446 150.264 9.03898 148.473 9.7941C147.78 10.0879 147.412 10.6502 147.224 11.3388C147.043 12.0021 146.943 12.6861 146.757 13.3471C146.385 14.676 145.351 15.2383 144.026 14.8688C142.965 14.5727 142.388 13.3907 142.718 12.1765C142.967 11.2653 143.498 10.5148 144.303 10.0833C145.181 9.61278 146.119 9.17899 147.085 8.96554C149.253 8.48125 151.437 8.54092 153.574 9.22948C155.962 9.99838 157.19 11.7198 157.511 14.1481C157.602 14.8458 157.62 15.5573 157.627 16.2643C157.662 19.2664 157.675 22.2685 157.707 25.2729C157.716 26.1107 157.689 26.9599 158.526 27.5268C158.83 27.7334 158.686 28.1672 158.304 28.1855C156.975 28.2521 155.628 28.3508 154.393 27.6898C153.476 27.1986 153.032 26.3471 152.748 25.3005L152.753 25.2982ZM152.604 17.4027C151.076 18.1326 149.614 18.7821 148.203 19.5235C147.3 19.9986 146.556 20.694 146.165 21.6901C145.579 23.1774 145.996 24.7129 147.215 25.3601C149.317 26.4756 152.524 25.2339 152.602 22.3121C152.641 20.8409 152.636 19.3674 152.645 17.8962C152.645 17.7676 152.625 17.6391 152.602 17.4027H152.604Z" fill="#0D0D0D"/>
<path d="M72.9033 28.6239C66.7867 28.6996 62.6487 23.7764 63.232 17.6299C63.5797 13.969 65.2724 11.0977 68.7035 9.55766C74.1431 7.11786 81.5589 9.61734 82.5128 17.2122C82.9863 20.9901 81.9226 24.2538 78.8803 26.7028C77.2837 27.9881 75.209 28.6216 72.9033 28.6239ZM77.7183 21.4629C77.6543 18.867 77.2585 16.3331 76.2475 13.9254C75.6573 12.5208 74.9093 11.2125 73.5986 10.3449C72.0501 9.32125 70.1538 9.67701 69.1542 11.2446C68.7745 11.8414 68.4542 12.5437 68.3421 13.2369C67.6719 17.3063 68.3421 21.1806 70.2796 24.8139C70.6227 25.4565 71.1259 26.051 71.6681 26.5398C73.6192 28.3026 76.1491 27.676 77.119 25.2293C77.5994 24.022 77.7297 22.7551 77.7206 21.4629H77.7183Z" fill="#0D0D0D"/>
<path d="M91.0654 12.0572C91.3514 11.5224 91.5412 11.1093 91.7791 10.726C93.1836 8.46754 96.5667 7.94423 98.6025 9.66104C99.9338 10.7834 100.142 12.8055 99.044 13.9531C97.9414 15.1053 96.2579 14.7885 95.67 13.3127C95.5648 13.0465 95.4596 12.7802 95.3566 12.514C95.0387 11.7038 94.4783 11.2585 93.5793 11.2447C92.6918 11.2333 92.0422 11.6257 91.7311 12.4222C91.4703 13.0878 91.2324 13.8131 91.2187 14.5177C91.1501 18.1303 91.1569 21.7453 91.1386 25.3602C91.1386 25.4933 91.1615 25.6265 91.1661 25.7619C91.189 26.5996 91.5458 27.1665 92.3876 27.4167C92.5866 27.4764 92.7215 27.7587 92.8839 27.94C92.6781 28.0341 92.4722 28.2108 92.2663 28.2131C89.9606 28.2338 87.6549 28.2315 85.3491 28.2131C85.1616 28.2131 84.974 28.0433 84.7864 27.9515C84.9008 27.7771 84.9809 27.5016 85.1387 27.442C85.8524 27.1711 86.0514 26.6134 86.0514 25.9409C86.0583 21.7522 86.0582 17.5634 86.0537 13.3747C86.0537 12.6769 85.8432 12.1054 85.1204 11.8162C84.9671 11.7543 84.775 11.4857 84.8025 11.3549C84.8391 11.1782 85.0495 10.9441 85.2233 10.905C86.9412 10.5172 88.579 9.9204 90.1527 9.13774C90.6034 8.91281 90.7932 9.0574 90.8435 9.59448C90.9145 10.368 90.9808 11.1414 91.0631 12.0572H91.0654Z" fill="#0D0D0D"/>
<path d="M130.911 12.0733C131.206 11.5109 131.386 11.1116 131.615 10.742C133.022 8.47439 136.375 7.9419 138.429 9.64953C139.493 10.5332 139.882 12.0021 139.374 13.2209C138.965 14.2032 137.967 14.777 136.931 14.6118C136.323 14.5154 135.886 14.1711 135.641 13.6019C135.467 13.1979 135.321 12.7848 135.145 12.3831C134.843 11.6991 134.342 11.2998 133.569 11.2539C132.752 11.2057 132.036 11.4467 131.709 12.1995C131.389 12.9386 131.098 13.7533 131.071 14.5452C130.972 17.3522 130.988 20.1615 130.972 22.9709C130.968 23.9257 130.993 24.8805 131.018 25.8353C131.041 26.6271 131.4 27.178 132.196 27.3868C132.306 27.4144 132.436 27.4511 132.503 27.5291C132.601 27.6485 132.713 27.8115 132.704 27.9492C132.699 28.041 132.507 28.1511 132.377 28.1993C132.258 28.2429 132.114 28.2177 131.981 28.2177H125.355C125.24 28.2177 125.112 28.2498 125.016 28.2085C124.874 28.1466 124.677 28.0502 124.652 27.9354C124.625 27.8137 124.739 27.559 124.844 27.5223C125.929 27.1527 125.92 26.2507 125.922 25.3579C125.926 21.5341 125.922 17.7126 125.922 13.8888C125.922 13.6592 125.91 13.4297 125.894 13.2025C125.849 12.592 125.636 12.1077 125.021 11.8414C124.844 11.7657 124.659 11.4811 124.661 11.2952C124.664 11.1529 124.936 10.9555 125.123 10.8866C126.725 10.2991 128.34 9.74363 129.941 9.15606C130.483 8.95868 130.641 9.0413 130.696 9.64953C130.762 10.4047 130.831 11.1621 130.911 12.0733Z" fill="#0D0D0D"/>
<path fill-rule="evenodd" clip-rule="evenodd" d="M26.8452 31.6755L3.35112 2.02241C3.26085 1.90886 3.26674 1.74674 3.36486 1.63975C3.46298 1.53342 3.6239 1.51439 3.74361 1.59512L25.6069 16.3088C28.3503 18.1551 29.7554 21.4481 29.1929 24.7141L28.0468 31.367C28.0017 31.6315 27.8054 31.8448 27.5457 31.9118C27.286 31.9781 27.0113 31.8855 26.8452 31.6755ZM28.3785 15.0669L16.8931 0.476677C16.8054 0.365752 16.8094 0.208228 16.9016 0.101241C16.9938 -0.00508944 17.1482 -0.03134 17.2699 0.0395469L26.539 5.43154C29.6658 7.25032 30.9852 11.0986 29.6357 14.4624L29.4558 14.9114C29.3721 15.1201 29.1837 15.2684 28.9619 15.3006C28.7402 15.3328 28.5178 15.2435 28.3785 15.0669ZM14.6965 31.0473L0.0634242 12.3292C-0.0248845 12.2164 -0.0189924 12.0569 0.0765117 11.9505C0.172016 11.8442 0.330316 11.8225 0.451332 11.8993L12.9539 19.8387C16.6759 22.2022 17.9351 27.0553 15.8354 30.9403L15.8295 30.9515C15.7202 31.153 15.5168 31.2863 15.2885 31.3059C15.0609 31.325 14.8378 31.2278 14.6965 31.0473Z" fill="#0D0D0D"/>
</g>
<defs>
<clipPath id="clip0_18_82">
<rect width="158.72" height="32" fill="white"/>
</clipPath>
</defs>
</svg>
